<svg xmlns="http://www.w3.org/2000/svg" width="11" height="11" viewBox="0 0 11 11">
  <title>Food</title>
  <g>
    <polyline points="11 0.25 11 0 10.75 0" fill="none" stroke="#00aeef" stroke-miterlimit="10" stroke-width="0.05"/>
    <line x1="10.25" x2="0.5" fill="none" stroke="#00aeef" stroke-miterlimit="10" stroke-width="0.05" stroke-dasharray="0.5 0.5"/>
    <polyline points="0.25 0 0 0 0 0.25" fill="none" stroke="#00aeef" stroke-miterlimit="10" stroke-width="0.05"/>
    <line y1="0.75" y2="10.5" fill="none" stroke="#00aeef" stroke-miterlimit="10" stroke-width="0.05" stroke-dasharray="0.5 0.5"/>
    <polyline points="0 10.75 0 11 0.25 11" fill="none" stroke="#00aeef" stroke-miterlimit="10" stroke-width="0.05"/>
    <line x1="0.75" y1="11" x2="10.5" y2="11" fill="none" stroke="#00aeef" stroke-miterlimit="10" stroke-width="0.05" stroke-dasharray="0.5 0.5"/>
    <polyline points="10.75 11 11 11 11 10.75" fill="none" stroke="#00aeef" stroke-miterlimit="10" stroke-width="0.05"/>
    <line x1="11" y1="10.25" x2="11" y2="0.5" fill="none" stroke="#00aeef" stroke-miterlimit="10" stroke-width="0.05" stroke-dasharray="0.5 0.5"/>
  </g>
  <circle cx="5.5" cy="5.5" r="5.5" fill="#03a1ea"/>
  <g>
    <path d="M6.3564,4.1531,1.9423,8.5672a.3468.3468,0,0,0,.49.4905L6.8469,4.6435s.2452.2453.7357-.2452L9.054,2.9269c.2452-.2452.049-.4414-.1962-.1961L7.3864,4.2021,7.19,4.006,8.6616,2.5346c.2452-.2453.049-.4414-.1962-.1962L6.994,3.81l-.1961-.1962L8.2692,2.1422c.2453-.2452.0491-.4414-.1961-.1962L6.6017,3.4174C6.1112,3.9079,6.3564,4.1531,6.3564,4.1531Z" fill="#fff"/>
    <path d="M5.31,5.9863,8.475,9.0531a.3733.3733,0,0,0,.5276,0,.3467.3467,0,0,0,0-.5112L2.1439,1.8972S1.88,1.6417,1.88,2.1528a4.1736,4.1736,0,0,0,1.319,2.3A13.2249,13.2249,0,0,0,5.31,5.9863" fill="#fff" stroke="#03a1ea" stroke-miterlimit="10" stroke-width="0.25"/>
  </g>
</svg>
