<svg xmlns="http://www.w3.org/2000/svg" width="15" height="15" viewBox="0 0 15 15">
  <title>ViewPoint</title>
  <g>
    <polyline points="15 14.75 15 15 14.75 15" fill="none" stroke="#00aeef" stroke-miterlimit="10" stroke-width="0.05"/>
    <line x1="14.25" y1="15" x2="0.5" y2="15" fill="none" stroke="#00aeef" stroke-miterlimit="10" stroke-width="0.05" stroke-dasharray="0.5 0.5"/>
    <polyline points="0.25 15 0 15 0 14.75" fill="none" stroke="#00aeef" stroke-miterlimit="10" stroke-width="0.05"/>
    <line y1="14.25" y2="0.5" fill="none" stroke="#00aeef" stroke-miterlimit="10" stroke-width="0.05" stroke-dasharray="0.5 0.5"/>
    <polyline points="0 0.25 0 0 0.25 0" fill="none" stroke="#00aeef" stroke-miterlimit="10" stroke-width="0.05"/>
    <line x1="0.75" x2="14.5" fill="none" stroke="#00aeef" stroke-miterlimit="10" stroke-width="0.05" stroke-dasharray="0.5 0.5"/>
    <polyline points="14.75 0 15 0 15 0.25" fill="none" stroke="#00aeef" stroke-miterlimit="10" stroke-width="0.05"/>
    <line x1="15" y1="0.75" x2="15" y2="14.5" fill="none" stroke="#00aeef" stroke-miterlimit="10" stroke-width="0.05" stroke-dasharray="0.5 0.5"/>
  </g>
  <circle cx="7.5" cy="7.5" r="7.5"/>
  <g>
    <path d="M4.5,7.5a3,3,0,0,1,3-3A10.4711,10.4711,0,0,0,.12,7.51,10.539,10.539,0,0,0,7.5,10.5,3,3,0,0,1,4.5,7.5Z" fill="#fff"/>
    <path d="M7.5,4.5a3,3,0,0,1,0,6,10.539,10.539,0,0,0,7.38-2.99A10.4711,10.4711,0,0,0,7.5,4.5Z" fill="#fff"/>
  </g>
</svg>
