<svg xmlns="http://www.w3.org/2000/svg" width="11" height="11" viewBox="0 0 11 11">
  <title>VisitCenter</title>
  <g>
    <polyline points="11 0.25 11 0 10.75 0" fill="none" stroke="#00aeef" stroke-miterlimit="10" stroke-width="0.05"/>
    <line x1="10.25" x2="0.5" fill="none" stroke="#00aeef" stroke-miterlimit="10" stroke-width="0.05" stroke-dasharray="0.5 0.5"/>
    <polyline points="0.25 0 0 0 0 0.25" fill="none" stroke="#00aeef" stroke-miterlimit="10" stroke-width="0.05"/>
    <line y1="0.75" y2="10.5" fill="none" stroke="#00aeef" stroke-miterlimit="10" stroke-width="0.05" stroke-dasharray="0.5 0.5"/>
    <polyline points="0 10.75 0 11 0.25 11" fill="none" stroke="#00aeef" stroke-miterlimit="10" stroke-width="0.05"/>
    <line x1="0.75" y1="11" x2="10.5" y2="11" fill="none" stroke="#00aeef" stroke-miterlimit="10" stroke-width="0.05" stroke-dasharray="0.5 0.5"/>
    <polyline points="10.75 11 11 11 11 10.75" fill="none" stroke="#00aeef" stroke-miterlimit="10" stroke-width="0.05"/>
    <line x1="11" y1="10.25" x2="11" y2="0.5" fill="none" stroke="#00aeef" stroke-miterlimit="10" stroke-width="0.05" stroke-dasharray="0.5 0.5"/>
  </g>
  <circle cx="5.5" cy="5.5" r="5.5" fill="#8e8e8e"/>
  <path d="M6.3535,4.2871v4.085a1.1951,1.1951,0,0,0,.1309.6982.7294.7294,0,0,0,.5136.1738v.1983H4.1172V9.2441a.7113.7113,0,0,0,.5254-.1992,1.2043,1.2043,0,0,0,.1133-.6728v-3.01a1.1918,1.1918,0,0,0-.1309-.6977.72.72,0,0,0-.5078-.1739V4.2871Zm-.7988-2.498a.8629.8629,0,0,1,.6269.2505.8117.8117,0,0,1,.2569.604.801.801,0,0,1-.2588.601.8732.8732,0,0,1-.625.2481.8634.8634,0,0,1-.6221-.2481.805.805,0,0,1-.2558-.601.8144.8144,0,0,1,.2558-.604A.86.86,0,0,1,5.5547,1.7891Z" fill="#fff"/>
</svg>
