<svg xmlns="http://www.w3.org/2000/svg" width="15" height="15" viewBox="0 0 15 15">
  <title>Food_15</title>
  <circle cx="7.5" cy="7.5" r="7.5" fill="#03a1ea"/>
  <path d="M8.6679,5.6633,2.6486,11.6826a.4729.4729,0,0,0,.6688.6688L9.3367,6.3321s.3344.3344,1.0032-.3344l2.0064-2.0064c.3344-.3344.0669-.6019-.2675-.2675L10.0724,5.73l-.2675-.2675,2.0064-2.0065c.3344-.3344.0669-.6019-.2675-.2675L9.5373,5.1951,9.27,4.9276l2.0064-2.0064c.3344-.3344.0669-.6019-.2675-.2675L9.0023,4.66C8.3335,5.3289,8.6679,5.6633,8.6679,5.6633Z" fill="#fff"/>
  <path d="M7.24,8.1631l4.3166,4.182a.5091.5091,0,0,0,.72,0,.4728.4728,0,0,0,0-.697L2.9236,2.5871s-.36-.3485-.36.3485A5.6916,5.6916,0,0,0,4.3624,6.0721,18.035,18.035,0,0,0,7.24,8.1631" fill="#fff" stroke="#03a1ea" stroke-miterlimit="10" stroke-width="0.25"/>
</svg>
