<svg xmlns="http://www.w3.org/2000/svg" width="11" height="11" viewBox="0 0 11 11">
  <title>Fun</title>
  <g>
    <polyline points="11 0.25 11 0 10.75 0" fill="none" stroke="#00aeef" stroke-miterlimit="10" stroke-width="0.05"/>
    <line x1="10.25" x2="0.5" fill="none" stroke="#00aeef" stroke-miterlimit="10" stroke-width="0.05" stroke-dasharray="0.5 0.5"/>
    <polyline points="0.25 0 0 0 0 0.25" fill="none" stroke="#00aeef" stroke-miterlimit="10" stroke-width="0.05"/>
    <line y1="0.75" y2="10.5" fill="none" stroke="#00aeef" stroke-miterlimit="10" stroke-width="0.05" stroke-dasharray="0.5 0.5"/>
    <polyline points="0 10.75 0 11 0.25 11" fill="none" stroke="#00aeef" stroke-miterlimit="10" stroke-width="0.05"/>
    <line x1="0.75" y1="11" x2="10.5" y2="11" fill="none" stroke="#00aeef" stroke-miterlimit="10" stroke-width="0.05" stroke-dasharray="0.5 0.5"/>
    <polyline points="10.75 11 11 11 11 10.75" fill="none" stroke="#00aeef" stroke-miterlimit="10" stroke-width="0.05"/>
    <line x1="11" y1="10.25" x2="11" y2="0.5" fill="none" stroke="#00aeef" stroke-miterlimit="10" stroke-width="0.05" stroke-dasharray="0.5 0.5"/>
  </g>
  <circle cx="5.5" cy="5.5" r="5.5" fill="#03a1ea"/>
  <path d="M9.8017,4.3437A2.0034,2.0034,0,0,0,7.4878,3.0055a1.9991,1.9991,0,0,0-3.9756,0,1.9991,1.9991,0,0,0-1.2285,3.781A1.9991,1.9991,0,0,0,5.5,9.1233,1.9991,1.9991,0,0,0,8.7163,6.7865,2.0034,2.0034,0,0,0,9.8017,4.3437ZM5.5,8.0129A2.2616,2.2616,0,1,1,7.7616,5.7513,2.2617,2.2617,0,0,1,5.5,8.0129Z" fill="#fff"/>
</svg>
