<svg xmlns="http://www.w3.org/2000/svg" width="11" height="11" viewBox="0 0 11 11">
  <title>RailStaion</title>
  <g>
    <polyline points="11 0.25 11 0 10.75 0" fill="none" stroke="#00aeef" stroke-miterlimit="10" stroke-width="0.05"/>
    <line x1="10.25" x2="0.5" fill="none" stroke="#00aeef" stroke-miterlimit="10" stroke-width="0.05" stroke-dasharray="0.5 0.5"/>
    <polyline points="0.25 0 0 0 0 0.25" fill="none" stroke="#00aeef" stroke-miterlimit="10" stroke-width="0.05"/>
    <line y1="0.75" y2="10.5" fill="none" stroke="#00aeef" stroke-miterlimit="10" stroke-width="0.05" stroke-dasharray="0.5 0.5"/>
    <polyline points="0 10.75 0 11 0.25 11" fill="none" stroke="#00aeef" stroke-miterlimit="10" stroke-width="0.05"/>
    <line x1="0.75" y1="11" x2="10.5" y2="11" fill="none" stroke="#00aeef" stroke-miterlimit="10" stroke-width="0.05" stroke-dasharray="0.5 0.5"/>
    <polyline points="10.75 11 11 11 11 10.75" fill="none" stroke="#00aeef" stroke-miterlimit="10" stroke-width="0.05"/>
    <line x1="11" y1="10.25" x2="11" y2="0.5" fill="none" stroke="#00aeef" stroke-miterlimit="10" stroke-width="0.05" stroke-dasharray="0.5 0.5"/>
  </g>
  <circle cx="5.5" cy="5.5" r="5.5" fill="#8e8e8e"/>
  <path d="M8.475,9.75a.425.425,0,0,1-.425.425.4166.4166,0,0,1-.3655-.23h0l-.323-.62H3.6385l-.3145.629h0a.4168.4168,0,0,1-.374.221.425.425,0,0,1-.425-.425.4173.4173,0,0,1,.0595-.204h0l.85-1.7h0A.4164.4164,0,0,1,3.8,7.625a.425.425,0,0,1,.425.595l-.1615.255h2.873L6.775,8.22a.425.425,0,0,1,.765-.3655h0l.85,1.7h0A.4169.4169,0,0,1,8.475,9.75ZM7.625.825H3.375a.85.85,0,0,0-.85.85v4.25a.85.85,0,0,0,.85.85h4.25a.85.85,0,0,0,.85-.85V1.675A.85.85,0,0,0,7.625.825ZM3.8,5.925A.425.425,0,1,1,4.225,5.5.425.425,0,0,1,3.8,5.925Zm0-1.7A.425.425,0,0,1,3.375,3.8V2.1A.425.425,0,0,1,3.8,1.675H5.3215v2.55Zm3.4,1.7A.425.425,0,1,1,7.625,5.5.425.425,0,0,1,7.2,5.925ZM7.625,3.8a.425.425,0,0,1-.425.425H5.6615V1.675H7.2a.425.425,0,0,1,.425.425Z" fill="#fff"/>
</svg>
