<?xml version="1.0" encoding="utf-8"?>
<!-- Generator: Adobe Illustrator 22.1.0, SVG Export Plug-In . SVG Version: 6.00 Build 0)  -->
<svg version="1.1" id="图层_1" xmlns="http://www.w3.org/2000/svg" xmlns:xlink="http://www.w3.org/1999/xlink" x="0px" y="0px"
	 viewBox="0 0 80 80" style="enable-background:new 0 0 80 80;" xml:space="preserve">
<g>
	<g>
		<path d="M13.2,9.8c0.2,0,0.4,0,0.6,0c0.7,0,0.7-1,0-1c-0.2,0-0.4,0-0.6,0C12.5,8.7,12.5,9.8,13.2,9.8L13.2,9.8z"/>
	</g>
</g>
<g>
	<g>
		<path d="M18.4,4.3c0.3,0.2,0.7,0.4,1.1,0.5c0.6,0.2,0.9-0.8,0.3-1c-0.3-0.1-0.5-0.2-0.8-0.4C18.4,3.1,17.9,4,18.4,4.3L18.4,4.3z"
			/>
	</g>
</g>
<g>
	<g>
		<path d="M29.4,4.4c0.7,0,0.7-1,0-1C28.7,3.3,28.7,4.4,29.4,4.4L29.4,4.4z"/>
	</g>
</g>
<g>
	<g>
		<path d="M22.4,10.6c0.4,0.5,0.7,1,1.1,1.5c0.4,0.5,1.3,0,0.9-0.5c-0.4-0.5-0.7-1-1.1-1.5C22.9,9.5,22,10,22.4,10.6L22.4,10.6z"/>
	</g>
</g>
<g>
	<g>
		<path d="M31.2,10.5c0.6,0.8,0.6,1.8,0,2.6c-0.4,0.5,0.3,1.3,0.7,0.7c1.1-1.2,1.1-2.8,0-4C31.5,9.3,30.7,10,31.2,10.5L31.2,10.5z"
			/>
	</g>
</g>
<g>
	<g>
		<path d="M23.7,17.8c-0.6,1-0.7,2.3-0.2,3.4c0.3,0.6,1.2,0.1,0.9-0.5c-0.3-0.8-0.2-1.6,0.2-2.3C25,17.7,24.1,17.2,23.7,17.8
			L23.7,17.8z"/>
	</g>
</g>
<g>
	<g>
		<path d="M11,23c-0.2,0.7-0.2,1.4,0,2.1c0.2,0.7,1.2,0.4,1-0.3c-0.1-0.5-0.1-1,0-1.5C12.2,22.6,11.1,22.3,11,23L11,23z"/>
	</g>
</g>
<g>
	<g>
		<path d="M0.9,24.9c0.8-0.2,2,0,2.5,0.7c0.5,0.8-1,1.5-1.6,1.8c-0.6,0.3-0.1,1.2,0.5,0.9c1.1-0.5,2.8-1.6,2.1-3
			C3.8,24,2,23.5,0.7,23.9C0,24,0.3,25,0.9,24.9L0.9,24.9z"/>
	</g>
</g>
<g>
	<g>
		<path d="M6.4,31.6c-0.8,0.1-1.7,0.3-2.4,0.7c-0.6,0.4-0.8,1.2,0,1.5c0.6,0.2,0.9-0.8,0.3-1c0,0-0.1,0-0.1,0
			c0.1,0.1,0.2,0.2,0.3,0.2c-0.1,0.3,0,0.3,0.1,0.2c0,0,0.1-0.1,0.1-0.1C5,33.1,5.2,33,5.4,32.9c0.3-0.1,0.7-0.2,1.1-0.2
			C7.1,32.6,7.1,31.6,6.4,31.6L6.4,31.6z"/>
	</g>
</g>
<g>
	<g>
		<path d="M16.4,30.4c0.1,0.4,0.2,0.8,0.3,1.3c0.2,0.7,1.2,0.4,1-0.3c-0.1-0.4-0.2-0.8-0.3-1.3C17.3,29.5,16.2,29.8,16.4,30.4
			L16.4,30.4z"/>
	</g>
</g>
<g>
	<g>
		<path d="M19,19.6c-1.4-0.1-2.9,0.1-3.6,1.4c-0.3,0.5-0.5,1.2-0.1,1.7c0.4,0.6,1.3,0.9,1.9,1.2c0.6,0.3,1.1-0.6,0.5-0.9
			c-0.4-0.2-0.8-0.4-1.2-0.6c-0.3-0.2-0.4-0.4-0.3-0.8c0.1-0.2,0.2-0.4,0.4-0.6c0.6-0.6,1.6-0.5,2.4-0.5
			C19.7,20.7,19.7,19.7,19,19.6L19,19.6z"/>
	</g>
</g>
<g>
	<g>
		<path d="M32.2,20.9c0,0.4-0.4,0.7-0.8,0.9c-0.4,0.2-0.7,0.4-1,0.7c-0.5,0.5,0.3,1.2,0.7,0.7c0.8-0.8,2-1.1,2.1-2.4
			C33.3,20.2,32.2,20.2,32.2,20.9L32.2,20.9z"/>
	</g>
</g>
<g>
	<g>
		<path d="M24.1,25.6c0.5,1.5,1.4,2.6,2.7,3.5c0.6,0.4,1.1-0.5,0.5-0.9c-1.1-0.7-1.8-1.6-2.2-2.8C24.9,24.7,23.8,25,24.1,25.6
			L24.1,25.6z"/>
	</g>
</g>
<g>
	<g>
		<path d="M32.2,32.1c-1.4,3-4.9,3-7.7,2.5c-0.7-0.1-0.9,0.9-0.3,1c3.3,0.6,7.3,0.5,8.9-3C33.4,32,32.5,31.4,32.2,32.1L32.2,32.1z"
			/>
	</g>
</g>
<g>
	<g>
		<path d="M2.4,1.7c0.7,0,0.7-1,0-1C1.7,0.7,1.7,1.7,2.4,1.7L2.4,1.7z"/>
	</g>
</g>
<g>
	<g>
		<path d="M10.3,37.5c0.7,0,0.7-1,0-1C9.6,36.4,9.6,37.5,10.3,37.5L10.3,37.5z"/>
	</g>
</g>
<g>
	<g>
		<path d="M10.5,37.4c1.5-0.5,3.3-1.2,4.9-1.1c0.7,0,0.7-1,0-1.1c-1.7,0-3.6,0.7-5.2,1.2C9.5,36.6,9.8,37.6,10.5,37.4L10.5,37.4z"/>
	</g>
</g>
<g>
	<g>
		<path d="M29,3.6c-0.6,0.7-1.1,1.5-1.5,2.3c-0.3,0.6,0.6,1.1,0.9,0.5c0.4-0.8,0.9-1.6,1.5-2.3C30.3,3.6,29.4,3.1,29,3.6L29,3.6z"/>
	</g>
</g>
<g>
	<g>
		<path d="M17.5,1.3c1.1,0.2,2.2,0.6,3.2,1.1c0.6,0.3,1.1-0.6,0.5-0.9c-1.1-0.5-2.2-1-3.4-1.2C17.1,0.2,16.9,1.2,17.5,1.3L17.5,1.3z
			"/>
	</g>
</g>
<g>
	<g>
		<path d="M11.1,2.3c-0.9,0.1-2.2,0.3-2.8,1.1c-0.5,0.8,0,1.9,0.9,2.1c0.7,0.1,0.9-0.9,0.3-1c-0.2,0-0.4-0.1-0.4-0.3
			c0-0.2,0.3-0.4,0.5-0.4c0.5-0.2,1-0.3,1.5-0.4C11.7,3.3,11.8,2.3,11.1,2.3L11.1,2.3z"/>
	</g>
</g>
<g>
	<g>
		<path d="M1.4,6.1c0.6,0.5,1.2,1,1.8,1.5C3.4,7.7,3.8,8,3.9,8.3c0.1,0.4-0.2,0.6-0.5,0.9c-0.5,0.4,0.2,1.2,0.7,0.7
			c0.7-0.6,1.3-1.3,0.7-2.2C4.1,6.7,2.9,5.9,2,5.2C1.4,4.8,0.9,5.7,1.4,6.1L1.4,6.1z"/>
	</g>
</g>
<g>
	<g>
		<path d="M6.7,12.6c-1.9-0.4-5.3,0.6-5.2,3c0,0.7,1.1,0.7,1,0c-0.1-1.7,2.6-2.3,3.8-2C7.1,13.8,7.4,12.7,6.7,12.6L6.7,12.6z"/>
	</g>
</g>
<g>
	<g>
		<path d="M13.4,12.8c0.3,0.2,0.4,0.9,0.5,1.2c0.1,0.6,0.1,1.1-0.2,1.6c-0.4,0.6,0.5,1.1,0.9,0.5c0.5-0.7,0.5-1.5,0.4-2.3
			c-0.1-0.7-0.4-1.6-1-2C13.4,11.5,12.8,12.4,13.4,12.8L13.4,12.8z"/>
	</g>
</g>
<g>
	<g>
		<path d="M7.2,16.8c-1.3,1.5-2.3,4.8,0,5.9c0.6,0.3,1.1-0.6,0.5-0.9c-1.6-0.8-0.6-3.3,0.2-4.3C8.4,17,7.6,16.2,7.2,16.8L7.2,16.8z"
			/>
	</g>
</g>
<g>
	<g>
		<path d="M2.7,39.5c0.3,0.8,0.7,1.6,1.2,2.2c0.4,0.5,1.3,0,0.9-0.5c-0.5-0.6-0.8-1.3-1.1-2C3.5,38.6,2.5,38.9,2.7,39.5L2.7,39.5z"
			/>
	</g>
</g>
<g>
	<g>
		<path d="M9.1,41.9c0.6,0.8,1.4,1.4,2.2,1.9c0.6,0.3,1.1-0.6,0.5-0.9c-0.8-0.5-1.5-1.1-2-1.8C9.4,40.6,8.7,41.4,9.1,41.9L9.1,41.9z
			"/>
	</g>
</g>
<g>
	<g>
		<path d="M17.4,42.4c0.5,0.9,1.1,1.8,1.2,2.8c0.1,1.2-0.6,2-1.4,2.8c-0.5,0.5,0.3,1.2,0.7,0.7c0.8-0.8,1.7-1.7,1.8-3
			c0.1-1.4-0.7-2.8-1.4-3.9C18,41.3,17.1,41.8,17.4,42.4L17.4,42.4z"/>
	</g>
</g>
<g>
	<g>
		<path d="M9.1,46.5c-0.4,1.1-0.8,2.2-1.3,3.2c-0.2,0.6,0.8,0.9,1,0.3c0.4-1.1,0.8-2.2,1.3-3.2C10.4,46.1,9.4,45.9,9.1,46.5
			L9.1,46.5z"/>
	</g>
</g>
<g>
	<g>
		<path d="M24,41.6c0.7,0.7,1.5,1.4,2.2,2c0.5,0.5,1.2-0.3,0.7-0.7c-0.7-0.7-1.5-1.4-2.2-2C24.3,40.4,23.5,41.2,24,41.6L24,41.6z"/>
	</g>
</g>
<g>
	<g>
		<path d="M33.5,41.5c0.3,1.2,0.2,2.4-0.4,3.5c-0.3,0.6,0.6,1.1,0.9,0.5c0.7-1.3,0.9-2.8,0.5-4.3C34.3,40.6,33.3,40.9,33.5,41.5
			L33.5,41.5z"/>
	</g>
</g>
<g>
	<g>
		<path d="M29.7,50.1c0,1.1,0,2.2,0,3.3c0,0.7,1,0.7,1,0c0-1.1,0-2.2,0-3.3C30.8,49.4,29.7,49.4,29.7,50.1L29.7,50.1z"/>
	</g>
</g>
<g>
	<g>
		<path d="M24.3,48.6c-0.8,1.4-1.5,2.7-2.3,4.1c-0.4,0.7-0.8,1.3-0.4,2.1c0.5,1.1,1.8,2.7,3.1,1.9c0.6-0.4,0-1.3-0.5-0.9
			c-0.3,0.2-1.4-0.9-1.5-1.3c-0.2-0.7,0.2-1.2,0.5-1.8c0.7-1.2,1.3-2.4,2-3.6C25.5,48.6,24.6,48,24.3,48.6L24.3,48.6z"/>
	</g>
</g>
<g>
	<g>
		<path d="M0.7,53.4c0.4,1,0.9,1.9,1.6,2.7c0.5,0.5,1.2-0.2,0.7-0.7C2.5,54.7,2,54,1.7,53.1C1.5,52.5,0.5,52.8,0.7,53.4L0.7,53.4z"
			/>
	</g>
</g>
<g>
	<g>
		<path d="M3.9,49c0.2,0.2,0.4,0.4,0.5,0.7c0.2,0.6,1.3,0.4,1-0.3c-0.2-0.5-0.5-1-1-1.3C3.8,47.7,3.3,48.6,3.9,49L3.9,49z"/>
	</g>
</g>
<g>
	<g>
		<path d="M9.4,57.2c2-0.4,5.6,0.2,5.7-2.9c0-0.7-1-0.7-1.1,0c-0.1,2.1-3.6,1.5-5,1.8C8.5,56.4,8.7,57.4,9.4,57.2L9.4,57.2z"/>
	</g>
</g>
<g>
	<g>
		<path d="M5.8,61.2c-0.5,1-1.3,1.7-2.3,2.2c-0.6,0.3-0.1,1.2,0.5,0.9c1.1-0.6,2.1-1.5,2.7-2.6C7,61.1,6.1,60.6,5.8,61.2L5.8,61.2z"
			/>
	</g>
</g>
<g>
	<g>
		<path d="M1.1,70.3c0.9,1.1,2.6,1.3,3.8,0.5c0.6-0.4,0-1.3-0.5-0.9c-0.8,0.6-1.9,0.4-2.5-0.3C1.4,69,0.7,69.8,1.1,70.3L1.1,70.3z"
			/>
	</g>
</g>
<g>
	<g>
		<path d="M9.1,67c0.3,1.4,0.2,2.8-0.4,4.1c-0.3,0.6,0.6,1.1,0.9,0.5c0.7-1.6,0.9-3.2,0.5-4.9C9.9,66.1,8.9,66.4,9.1,67L9.1,67z"/>
	</g>
</g>
<g>
	<g>
		<path d="M14.1,60.2c-1.2,0.6-2.3,1.5-1.8,2.9c0.5,1.5,1.9,3.2,3.5,3.6c2.2,0.6,6.9-2.6,4.1-4.6c-0.5-0.4-1.1,0.5-0.5,0.9
			c1.2,0.8-1,2.1-1.5,2.4c-1.2,0.6-2.2,0.3-3.1-0.6c-0.5-0.5-1.1-1.2-1.3-1.9c-0.3-1.2,0.4-1.5,1.2-1.9
			C15.3,60.8,14.7,59.9,14.1,60.2L14.1,60.2z"/>
	</g>
</g>
<g>
	<g>
		<path d="M12.4,75.1c1.1,2.9,4,4.5,7,3.6c0.6-0.2,0.4-1.2-0.3-1c-2.4,0.7-4.9-0.5-5.7-2.9C13.1,74.2,12.1,74.5,12.4,75.1L12.4,75.1
			z"/>
	</g>
</g>
<g>
	<g>
		<path d="M20.4,68c1.5,1.4,1.9,3.5,1.2,5.5c-0.3,0.6,0.8,0.9,1,0.3c0.9-2.3,0.3-4.8-1.4-6.5C20.7,66.8,19.9,67.5,20.4,68L20.4,68z"
			/>
	</g>
</g>
<g>
	<g>
		<path d="M26.6,60.5c0,1.1,0.6,2.1,1.6,2.5c0.6,0.3,1.1-0.6,0.5-0.9c-0.7-0.3-1.1-0.9-1.1-1.6C27.6,59.8,26.6,59.8,26.6,60.5
			L26.6,60.5z"/>
	</g>
</g>
<g>
	<g>
		<path d="M32.9,60c0.9,1.1,1.4,2.5,1.3,3.9c0,0.7,1,0.7,1,0c0-1.7-0.5-3.3-1.6-4.6C33.2,58.7,32.5,59.5,32.9,60L32.9,60z"/>
	</g>
</g>
<g>
	<g>
		<path d="M31,68.3c0.3,1,0.7,1.9,1,2.9c0.2,0.6,1.2,0.4,1-0.3c-0.3-1-0.7-1.9-1-2.9C31.8,67.3,30.8,67.6,31,68.3L31,68.3z"/>
	</g>
</g>
<g>
	<g>
		<path d="M37.2,73.6c0.1,0.5,0,0.9-0.3,1.4c-0.4,0.6,0.6,1.1,0.9,0.5c0.4-0.7,0.5-1.4,0.4-2.2C38.1,72.7,37.1,73,37.2,73.6
			L37.2,73.6z"/>
	</g>
</g>
<g>
	<g>
		<path d="M0.6,77.5c0.9,0,1.8,0.2,2.6,0.3c0.4,0.1,2.1,0.3,2.1,0.9c0.1,0.7,1.1,0.7,1.1,0c-0.1-0.9-0.7-1.3-1.5-1.5
			c-1.4-0.5-2.8-0.7-4.2-0.8C0,76.4,0,77.5,0.6,77.5L0.6,77.5z"/>
	</g>
</g>
<g>
	<g>
		<path d="M24.8,77.2c1.9,0.5,3.9,0.6,5.9,0.4c0.7-0.1,0.7-1.1,0-1.1c-1.9,0.2-3.8,0.1-5.6-0.4C24.5,76,24.2,77,24.8,77.2L24.8,77.2
			z"/>
	</g>
</g>
<g>
	<g>
		<path d="M40.8,59.1c0,1.4-0.2,2.9-0.6,4.2c-0.2,0.7,0.8,0.9,1,0.3c0.4-1.5,0.6-3,0.6-4.5C41.9,58.4,40.8,58.4,40.8,59.1L40.8,59.1
			z"/>
	</g>
</g>
<g>
	<g>
		<path d="M36.2,51.5c0.1,0.7,0.3,1.4,0.8,2c0.4,0.5,1.3,0,0.9-0.5c-0.3-0.4-0.5-0.9-0.6-1.5C37.2,50.8,36.1,50.8,36.2,51.5
			L36.2,51.5z"/>
	</g>
</g>
<g>
	<g>
		<path d="M35,36.6c0.8,0,1.7,0.1,2.5,0.1c0.7,0,0.7-1,0-1c-0.8,0-1.7-0.1-2.5-0.1C34.3,35.6,34.3,36.6,35,36.6L35,36.6z"/>
	</g>
</g>
<g>
	<g>
		<path d="M33.2,25.7c1.4,0.5,2.4,1.4,3.1,2.7c0.3,0.6,1.2,0.1,0.9-0.5c-0.8-1.5-2.1-2.6-3.8-3.2C32.9,24.4,32.6,25.5,33.2,25.7
			L33.2,25.7z"/>
	</g>
</g>
<g>
	<g>
		<path d="M36.9,19.9c1.1,1.5,2.5,2.7,4.3,3.5c0.6,0.3,1.1-0.6,0.5-0.9c-1.6-0.7-2.9-1.7-3.9-3.1C37.4,18.8,36.5,19.4,36.9,19.9
			L36.9,19.9z"/>
	</g>
</g>
<g>
	<g>
		<path d="M38.4,15.2c0.6-0.1,1.2,0,1.7,0.3c0.6,0.3,1.1-0.6,0.5-0.9c-0.7-0.4-1.5-0.5-2.3-0.4C37.7,14.2,37.7,15.2,38.4,15.2
			L38.4,15.2z"/>
	</g>
</g>
<g>
	<g>
		<path d="M39.9,9.5c0.5-0.2,1-0.3,1.5-0.5c0.6-0.2,0.4-1.2-0.3-1c-0.5,0.2-1,0.3-1.5,0.5C39,8.7,39.2,9.7,39.9,9.5L39.9,9.5z"/>
	</g>
</g>
<g>
	<g>
		<path d="M42.6,0.9c1.2,0.1,2.4,0.4,3.6,0.8c0.6,0.2,0.9-0.8,0.3-1c-1.3-0.4-2.6-0.7-3.9-0.8C42-0.2,42,0.8,42.6,0.9L42.6,0.9z"/>
	</g>
</g>
<g>
	<g>
		<path d="M38.2,3.1c-1.5,1.2-2.9,2.5-4,4.1c-0.4,0.5,0.5,1.1,0.9,0.5c1-1.4,2.2-2.7,3.6-3.7C39.2,3.6,38.7,2.7,38.2,3.1L38.2,3.1z"
			/>
	</g>
</g>
<g>
	<g>
		<path d="M51.6,3.2c0.8,0.7,1.3,1.5,1.6,2.5c0.2,0.6,1.2,0.4,1-0.3c-0.4-1.2-1-2.2-1.9-3C51.9,2.1,51.1,2.8,51.6,3.2L51.6,3.2z"/>
	</g>
</g>
<g>
	<g>
		<path d="M70.1,1.4C70,2.7,69.9,4,69.9,5.2c0,0.7,1,0.7,1.1,0C71,4,71,2.7,71.2,1.4C71.3,0.7,70.2,0.7,70.1,1.4L70.1,1.4z"/>
	</g>
</g>
<g>
	<g>
		<path d="M73.7,4.1c-0.4,1-1.5,1.6-2.2,2.4c-0.6,0.8-1.1,1.8-1.4,2.8c-0.3,1.4-0.3,3.1,1.4,3.4c0.7,0.1,0.9-0.9,0.3-1
			c-2.1-0.5,0.2-4.2,0.8-5c0.6-0.7,1.5-1.2,1.9-2.1C74.9,4,74,3.5,73.7,4.1L73.7,4.1z"/>
	</g>
</g>
<g>
	<g>
		<path d="M62.6,4.4c0.6,1.9-3.5,2.3-4.6,2.3c-0.7,0-0.7,1,0,1.1c1.8,0.1,6.5-0.8,5.6-3.6C63.4,3.5,62.4,3.8,62.6,4.4L62.6,4.4z"/>
	</g>
</g>
<g>
	<g>
		<path d="M49.2,10.8c-0.9,1-1.5,2.2-1.5,3.6c0,0.7,1,0.7,1,0c0.1-1.1,0.5-2,1.2-2.8C50.4,11.1,49.6,10.3,49.2,10.8L49.2,10.8z"/>
	</g>
</g>
<g>
	<g>
		<path d="M55.9,12.5c-0.6,0.7-1.2,1.4-1.7,2.1c-0.4,0.5-0.6,1.1-0.1,1.6c0.5,0.5,1.2-0.3,0.7-0.7c0,0,1.7-2,1.8-2.2
			C57.1,12.8,56.4,12,55.9,12.5L55.9,12.5z"/>
	</g>
</g>
<g>
	<g>
		<path d="M73.3,15.5c-2.8-1.6-5.9-2-8.9-1.1c-0.7,0.2-0.4,1.2,0.3,1c2.8-0.8,5.6-0.4,8.1,1C73.3,16.8,73.8,15.9,73.3,15.5
			L73.3,15.5z"/>
	</g>
</g>
<g>
	<g>
		<path d="M44.5,18.1c0.4,1.1,0.8,2.2,1.8,2.8c0.9,0.6,2,0.5,2.8-0.2c0.5-0.4-0.2-1.2-0.7-0.7c-0.6,0.5-1.5,0.2-2-0.3
			c-0.5-0.5-0.7-1.2-1-1.8C45.2,17.2,44.2,17.5,44.5,18.1L44.5,18.1z"/>
	</g>
</g>
<g>
	<g>
		<path d="M59.3,19.3c0.2,1.4,1,2.5,2.3,3c0.6,0.2,0.9-0.8,0.3-1c-0.8-0.3-1.4-1.1-1.5-2C60.3,18.6,59.2,18.6,59.3,19.3L59.3,19.3z"
			/>
	</g>
</g>
<g>
	<g>
		<path d="M74.3,19.3c0.3,0.9,1,2.7-0.1,3.2c-0.9,0.4-2.2,0.5-3.2,0.6c-0.7,0.1-0.7,1.1,0,1c0.8-0.1,1.6-0.2,2.3-0.3
			c0.6-0.1,1.5-0.3,2-0.7c1-0.9,0.3-3-0.1-4.1C75.1,18.4,74.1,18.6,74.3,19.3L74.3,19.3z"/>
	</g>
</g>
<g>
	<g>
		<path d="M66.3,22c-0.6,2.1-1.2,4.4,0.2,6.3c0.4,0.5,1.3,0,0.9-0.5c-1.2-1.7-0.7-3.7-0.1-5.5C67.5,21.6,66.5,21.4,66.3,22L66.3,22z
			"/>
	</g>
</g>
<g>
	<g>
		<path d="M54.2,22c0.3,1.1,0.3,2.2-0.1,3.4c-0.2,0.6,0.8,0.9,1,0.3c0.4-1.3,0.4-2.6,0.1-3.9C55.1,21.1,54,21.4,54.2,22L54.2,22z"/>
	</g>
</g>
<g>
	<g>
		<path d="M47.3,25.3c-1.3,0.5-2.7,0.9-4,1.6c-0.8,0.4-1.4,0.9-1.5,1.9c-0.1,0.7,1,0.7,1,0c0.1-0.8,1.4-1.2,2.1-1.4
			c0.9-0.3,1.8-0.7,2.6-1C48.2,26.1,47.9,25,47.3,25.3L47.3,25.3z"/>
	</g>
</g>
<g>
	<g>
		<path d="M51.4,25.9c-2,0.6-3.8,2.2-4.2,4.4c-0.4,2.4,3,3.1,4.8,3.3c0.7,0.1,0.7-1,0-1c-1.6-0.2-4.4-0.9-3.4-3.1
			c0.6-1.3,1.7-2.2,3.1-2.6C52.3,26.8,52,25.7,51.4,25.9L51.4,25.9z"/>
	</g>
</g>
<g>
	<g>
		<path d="M56,29.9c0.5,0.1,0.3,1.6,0.3,2c-0.1,0.7-0.3,1.4-0.7,2c-0.3,0.6,0.6,1.1,0.9,0.5c0.6-1,0.9-2.1,0.9-3.3
			c0-0.9-0.2-1.9-1.1-2.2C55.6,28.6,55.3,29.7,56,29.9L56,29.9z"/>
	</g>
</g>
<g>
	<g>
		<path d="M61.1,27.6c0.1,1.9,0.8,3.6,2,5.1c0.4,0.5,1.2-0.2,0.7-0.7c-1-1.3-1.6-2.8-1.7-4.4C62.1,27,61.1,26.9,61.1,27.6L61.1,27.6
			z"/>
	</g>
</g>
<g>
	<g>
		<path d="M75.2,28.5c-1.1,1.2-2.3,2-3.8,2.6c-0.6,0.2-0.4,1.2,0.3,1c1.7-0.6,3.1-1.5,4.3-2.8C76.4,28.8,75.6,28,75.2,28.5
			L75.2,28.5z"/>
	</g>
</g>
<g>
	<g>
		<path d="M60.5,22.9c-0.4,0.8-0.9,1.6-1.5,2.3c-0.4,0.5,0.5,1.1,0.9,0.5c0.5-0.7,1-1.5,1.5-2.3C61.7,22.8,60.8,22.3,60.5,22.9
			L60.5,22.9z"/>
	</g>
</g>
<g>
	<g>
		<path d="M59.4,35.2c-0.6,0.5-1.3,1-2,1.5c-0.6,0.4,0,1.3,0.5,0.9c0.8-0.5,1.5-1,2.2-1.6C60.7,35.5,59.9,34.8,59.4,35.2L59.4,35.2z
			"/>
	</g>
</g>
<g>
	<g>
		<path d="M46.3,38.3c-0.8,1.1-1.6,2.2-2.3,3.3c-0.4,0.6,0.5,1.1,0.9,0.5c0.8-1.1,1.6-2.2,2.3-3.3C47.6,38.2,46.7,37.7,46.3,38.3
			L46.3,38.3z"/>
	</g>
</g>
<g>
	<g>
		<path d="M37.5,49.8c1.1-0.9,2.2-1.7,3.7-1.5c1.3,0.2,2.6,1,3.8,1.6c0.6,0.3,1.1-0.6,0.5-0.9c-1.4-0.7-2.9-1.7-4.5-1.8
			c-1.6-0.1-2.9,0.8-4.1,1.7C36.5,49.3,37,50.2,37.5,49.8L37.5,49.8z"/>
	</g>
</g>
<g>
	<g>
		<path d="M52.3,39.4c0.1,0.8,0.2,1.7,0.4,2.5c0.1,0.7,1.1,0.4,1-0.3c-0.1-0.8-0.2-1.7-0.4-2.5C53.2,38.4,52.2,38.7,52.3,39.4
			L52.3,39.4z"/>
	</g>
</g>
<g>
	<g>
		<path d="M59.4,42.4c1.7,1.1,3.7,1.4,5.6,0.8c0.6-0.2,0.4-1.2-0.3-1c-1.7,0.5-3.3,0.3-4.8-0.7C59.4,41.1,58.9,42,59.4,42.4
			L59.4,42.4z"/>
	</g>
</g>
<g>
	<g>
		<path d="M66.1,38.1c0.6,0.9,1.2,1.8,1.8,2.7c0.4,0.6,1.3,0,0.9-0.5c-0.6-0.9-1.2-1.8-1.8-2.7C66.6,37,65.7,37.6,66.1,38.1
			L66.1,38.1z"/>
	</g>
</g>
<g>
	<g>
		<path d="M78,33.9c1.4,0.3,1.4,2.3-0.1,2.4c-0.7,0-0.7,1.1,0,1.1c1.1-0.1,2.1-0.9,2.2-2c0.1-1.1-0.7-2.2-1.8-2.4
			C77.6,32.7,77.3,33.7,78,33.9L78,33.9z"/>
	</g>
</g>
<g>
	<g>
		<path d="M73.8,43.1c0.5,0.1,1.1,0.3,1.6,0.6c0.4,0.3,0.8,0.8,0.6,1.3c-0.3,0.6,0.6,1.1,0.9,0.5c0.3-0.8,0.2-1.6-0.4-2.2
			c-0.6-0.7-1.6-1-2.4-1.2C73.5,41.9,73.2,42.9,73.8,43.1L73.8,43.1z"/>
	</g>
</g>
<g>
	<g>
		<path d="M76.6,8.3c0.3,0.6,0.6,1.2,0.9,1.9c0.1,0.2,0.6,1.5,0.4,1.7c-0.5,0.5,0.3,1.2,0.7,0.7c0.5-0.6,0.2-1.3,0.1-2
			c-0.3-1-0.7-1.9-1.2-2.8C77.1,7.1,76.2,7.7,76.6,8.3L76.6,8.3z"/>
	</g>
</g>
<g>
	<g>
		<path d="M71,45.4c-2.2,0.2-4.3,0.8-6.3,1.9c-0.6,0.3-0.1,1.2,0.5,0.9c1.8-1,3.7-1.6,5.7-1.8C71.7,46.4,71.7,45.3,71,45.4L71,45.4z
			"/>
	</g>
</g>
<g>
	<g>
		<path d="M52.3,45.9c0.7,0.2,1.5,0.4,2.1,0.8c0.5,0.3,1,1.2,0.5,1.7c-0.5,0.5,0.3,1.2,0.7,0.7c0.7-0.7,0.6-1.9,0-2.7
			c-0.7-1-2-1.2-3.1-1.6C51.9,44.6,51.6,45.6,52.3,45.9L52.3,45.9z"/>
	</g>
</g>
<g>
	<g>
		<path d="M49.9,49.2c-0.7,1.1-0.7,2.6,0,3.6c0.4,0.5,1.3,0,0.9-0.5c-0.6-0.8-0.6-1.8,0-2.6C51.1,49.1,50.2,48.6,49.9,49.2
			L49.9,49.2z"/>
	</g>
</g>
<g>
	<g>
		<path d="M56.8,53.3c0.7-1.1,1.8-1.5,3-1.9c2.1-0.6,2.8,0.8,3.2,2.5c0.2,0.6,1.2,0.4,1-0.3c-0.5-1.7-1.4-3.6-3.4-3.4
			c-1.7,0.1-3.8,1.1-4.7,2.6C55.6,53.3,56.5,53.8,56.8,53.3L56.8,53.3z"/>
	</g>
</g>
<g>
	<g>
		<path d="M72.5,50.1c-0.5,1.1-1,2.2-0.6,3.4c0.3,1,1.3,1.7,2.2,2.3c0.6,0.4,1.1-0.5,0.5-0.9c-0.6-0.4-1.3-0.9-1.6-1.6
			c-0.4-0.9,0.1-1.8,0.5-2.7C73.7,50.1,72.8,49.5,72.5,50.1L72.5,50.1z"/>
	</g>
</g>
<g>
	<g>
		<path d="M67.1,52.9c-0.5,1.8-0.4,3.7,0.3,5.4c0.2,0.6,1.3,0.3,1-0.3c-0.6-1.6-0.7-3.2-0.3-4.9C68.3,52.5,67.3,52.2,67.1,52.9
			L67.1,52.9z"/>
	</g>
</g>
<g>
	<g>
		<path d="M78.7,54.2c0.2,2.7-1.6,4.7-3.7,6.2c-0.5,0.4,0,1.3,0.5,0.9c2.4-1.7,4.5-4,4.2-7.1C79.7,53.6,78.6,53.6,78.7,54.2
			L78.7,54.2z"/>
	</g>
</g>
<g>
	<g>
		<path d="M45.9,56.4c-0.4,0.9,0,1.8,0.9,2.1c1.2,0.5,2.9,0.1,4.2,0c0.7,0,0.7-1.1,0-1c-0.7,0-1.5,0.1-2.2,0.1c-0.4,0-2.4,0.2-2-0.7
			C47.1,56.3,46.1,55.8,45.9,56.4L45.9,56.4z"/>
	</g>
</g>
<g>
	<g>
		<path d="M40.2,69.2c1.7,0.7,3.4,0.8,5.1,0.2c0.6-0.2,0.4-1.3-0.3-1c-1.4,0.5-2.9,0.5-4.3-0.1C40.2,68,39.6,68.9,40.2,69.2
			L40.2,69.2z"/>
	</g>
</g>
<g>
	<g>
		<path d="M46,62.8c1.6,0.4,3.6,0.9,4.1,2.8c0.2,0.7,1.2,0.4,1-0.3c-0.6-2.2-2.8-3-4.9-3.5C45.6,61.7,45.3,62.7,46,62.8L46,62.8z"/>
	</g>
</g>
<g>
	<g>
		<path d="M59.8,59.6c-0.8,0.7-0.7,1.9,0,2.6c0.5,0.6,1.1,0.8,1.7,1.2c0.9,0.5,1.5,1.2,1.8,2.2c0.2,0.7,1.2,0.4,1-0.3
			c-0.3-1-0.8-1.8-1.6-2.4c-0.6-0.5-3.4-1.5-2.2-2.6C61,59.8,60.3,59.1,59.8,59.6L59.8,59.6z"/>
	</g>
</g>
<g>
	<g>
		<path d="M54.1,59.6c0.1,0.7,0.2,1.4,0.5,2c0.3,0.6,1.3,0.3,1-0.3c-0.2-0.6-0.4-1.1-0.5-1.7C55.1,59,54,59,54.1,59.6L54.1,59.6z"/>
	</g>
</g>
<g>
	<g>
		<path d="M41.2,79.1c1.5,0.3,2.9,0.4,4.4,0.4c0.7,0,0.7-1.1,0-1c-1.4,0-2.8-0.1-4.1-0.3C40.8,78,40.5,79,41.2,79.1L41.2,79.1z"/>
	</g>
</g>
<g>
	<g>
		<path d="M54.2,71.9c0.4,0.6,0.6,1.2,0.6,1.9c0.1,0.7,1.1,0.4,1-0.3c-0.1-0.8-0.4-1.5-0.8-2.2C54.8,70.7,53.9,71.3,54.2,71.9
			L54.2,71.9z"/>
	</g>
</g>
<g>
	<g>
		<path d="M56.6,64.5c-0.3,0.5-0.2,1.2,0.2,1.6c0.5,0.5,1.2,0.6,1.8,0.6c0.7,0,0.7-1,0-1.1c-0.3,0-1.4-0.1-1.1-0.6
			C57.9,64.5,57,63.9,56.6,64.5L56.6,64.5z"/>
	</g>
</g>
<g>
	<g>
		<path d="M69.1,61.8c0.5,0.8,1.1,1.6,1.8,2.3c0.5,0.5,1.2-0.2,0.7-0.7C71,62.7,70.5,62,70,61.3C69.7,60.7,68.8,61.2,69.1,61.8
			L69.1,61.8z"/>
	</g>
</g>
<g>
	<g>
		<path d="M75.2,66.3c1.7,1.9,0.5,4.4-0.5,6.3c-0.3,0.6,0.6,1.1,0.9,0.5c1.3-2.4,2.4-5.2,0.4-7.5C75.5,65,74.8,65.8,75.2,66.3
			L75.2,66.3z"/>
	</g>
</g>
<g>
	<g>
		<path d="M68.9,68.4c-0.7,1.8-0.3,3.8,1.1,5.2c0.5,0.5,1.2-0.3,0.7-0.7c-1.1-1.1-1.4-2.7-0.8-4.2C70.1,68,69.1,67.7,68.9,68.4
			L68.9,68.4z"/>
	</g>
</g>
<g>
	<g>
		<path d="M61.2,71.1c1.1,0.9,1.7,2.2,1.7,3.6c0,0.7,1.1,0.7,1.1,0c0-1.7-0.7-3.2-2-4.3C61.5,70,60.7,70.7,61.2,71.1L61.2,71.1z"/>
	</g>
</g>
<g>
	<g>
		<path d="M52.9,77.5c0.8,0.8,1.9,1.2,3,1.1c0.7-0.1,0.7-1.1,0-1.1c-0.9,0.1-1.7-0.2-2.3-0.8C53.1,76.3,52.4,77,52.9,77.5L52.9,77.5
			z"/>
	</g>
</g>
<g>
	<g>
		<path d="M70.7,77.3c0.9,0.7,2.1,0.6,3.1,0.6c1.7,0.1,3.4,0,5.1,0c0.7,0,0.7-1.1,0-1.1c-1.3,0.1-2.6,0.1-3.9,0.1
			c-1.1,0-2.9,0.2-3.8-0.5C70.7,76,70.2,76.9,70.7,77.3L70.7,77.3z"/>
	</g>
</g>
</svg>
