<svg xmlns="http://www.w3.org/2000/svg" viewBox="0 0 27 27" height="27" width="27"><title>blood-bank-15.svg</title><rect fill="none" x="0" y="0" width="27" height="27"></rect><rect x="0" y="0" width="27.5" height="27.5" rx="13.75" ry="13.75" fill="#29644a"></rect><path fill="#ffffff" transform="translate(6 6)" d="M11.2,7.1L11.2,7.1L7.5,2L3.8,7.1h0C3.3,7.8,3,8.7,3,9.6C3,12,5,14,7.5,14c0,0,0,0,0,0C10,14,12,12,12,9.6c0,0,0,0,0,0
	C12,8.7,11.7,7.8,11.2,7.1z M10,10H8v2H7v-2H5V9h2V7h1v2h2V10z"></path></svg>